<svg xmlns="http://www.w3.org/2000/svg" viewBox="0 0 33 30">
  <defs>
    <clipPath id="a">
      <path d="M0 3.51h20.59V29.6H0z"/>
    </clipPath>
    <clipPath id="b">
      <path d="M15 .4h17.9v17.5H15z"/>
    </clipPath>
  </defs>
  <g clip-path="url(#a)">
    <path fill="#fb5328" d="M13.72 15.61l6.87 12.1a13.58 13.58 0 01-18.75-5.1A14.12 14.12 0 016.87 3.5z"/>
  </g>
  <path fill="#cc421c" d="M17.43 26.71a11.4 11.4 0 01-13.66-5.24A11.9 11.9 0 016.15 6.8l3.47 6.1a4.64 4.64 0 00-.8 5.61 4.45 4.45 0 005.16 2.1z"/>
  <path fill="#fbc800" d="M8.03 18.96c-.26 2.12-2.63 3.68-3.47 2.05-.96-1.56 1.55-2.87 3.47-2.04M12.54 22.05c1.79 1.1 2.22 3.94.4 4.04-1.79.26-1.94-2.6-.4-4.04m-2.61-.97c.96 1.89-.11 4.55-1.72 3.68-1.66-.72-.33-3.24 1.72-3.68"/>
  <g>
    <path fill="#fbc800" d="M7.59 13.32c-.05-2.14-2.25-3.93-3.24-2.39-1.12 1.45 1.23 3.03 3.24 2.39m-.48 2.8c-1.13-1.82-3.93-2.2-3.99-.35-.23 1.84 2.59 1.94 4 .34"/>
  </g>
  <g>
    <g clip-path="url(#b)">
      <path fill="#3d8c30" d="M23.96.4a8.84 8.84 0 018.94 8.75c0 4.83-4 8.75-8.94 8.75A8.87 8.87 0 0115 9.15 8.86 8.86 0 0123.96.4"/>
    </g>
    <path fill="#dbe8a4" d="M23.96 1.88c4.1 0 7.43 3.25 7.43 7.27 0 4-3.33 7.26-7.43 7.26s-7.43-3.25-7.43-7.26 3.33-7.27 7.43-7.27"/>
    <path fill="#fefefe" d="M23.96 4.58c-.34 0-.6.59-.6 1.32 0 .73.26 1.33.6 1.33.33 0 .6-.6.6-1.33 0-.73-.27-1.32-.6-1.32m0 6.47c-.34 0-.6.6-.6 1.33 0 .74.26 1.34.6 1.34.33 0 .6-.6.6-1.34 0-.73-.27-1.33-.6-1.33M28.63 9.15c0-.32-.6-.59-1.35-.59-.76 0-1.37.27-1.37.59 0 .33.61.58 1.36.58.75 0 1.35-.25 1.35-.58m-6.61 0c0-.32-.62-.59-1.37-.59s-1.36.27-1.36.59c0 .33.61.58 1.36.58.75 0 1.37-.25 1.37-.58M27.43 7.18c-.15-.24-.72-.18-1.27.14-.57.31-.9.76-.76 1.01.14.23.7.17 1.27-.15.55-.31.9-.77.76-1m-4.91 2.8c-.14-.24-.72-.18-1.27.13-.57.32-.9.78-.75 1.02.13.23.71.17 1.26-.15.57-.31.9-.77.76-1M27.45 11.12c-.15.24-.71.18-1.27-.14-.57-.32-.9-.77-.77-1.02.15-.23.71-.17 1.28.14.56.32.9.77.76 1.02M22.5 8.34c-.14.24-.72.18-1.27-.14-.56-.32-.9-.77-.76-1.02.15-.23.71-.17 1.28.14.56.32.9.77.75 1.02M25.66 12.02c.2-.12.15-.58-.12-1.04-.27-.46-.67-.74-.87-.62-.21.11-.16.58.11 1.04.28.46.66.73.87.62m-2.42-4.08c.22-.12.15-.59-.1-1.05-.28-.46-.67-.74-.88-.62-.21.1-.16.58.11 1.05.28.45.66.73.87.62"/>
    <g>
      <path fill="#fefefe" d="M25.86 5.7c-.25-.14-.7.2-1 .77-.32.56-.35 1.1-.1 1.24.25.14.7-.2 1-.76.31-.56.35-1.12.1-1.25m-2.7 4.89c-.25-.14-.7.2-1 .77-.32.56-.36 1.11-.1 1.25.23.13.7-.21 1-.77.3-.56.35-1.12.1-1.25"/>
    </g>
  </g>
</svg>
