<svg xmlns="http://www.w3.org/2000/svg" viewBox="0 0 10.64 11.23">
    <path d="M1.97 7.4l.63-.2L.9 1.88l-.63.2zm.82-.01l-.87.27a.12.12 0 0 1-.15-.07L.01 2.04a.12.12 0 0 1 .07-.15l.87-.28c.06-.02.13.02.15.08l1.76 5.55a.12.12 0 0 1-.07.15M3.07 5.82h.67V.24h-.67zm.79.24h-.91a.12.12 0 0 1-.12-.12V.12c0-.07.05-.12.12-.12h.9c.07 0 .13.05.13.12v5.82c0 .07-.06.12-.12.12M7.99 8.37l.63.2 1.75-5.3-.63-.2zm.67.47l-.86-.28a.12.12 0 0 1-.07-.15l1.82-5.53c.02-.07.08-.1.15-.08l.86.28c.06.03.1.1.07.16L8.81 8.77a.12.12 0 0 1-.15.07M8.3 4.75l-.6-.67a.12.12 0 0 0-.17 0l-.99.88.05.27 1.01-.9.45.5L6.75 6l.05.27 1.5-1.35a.12.12 0 0 0 0-.17M3.9 8.56l-.45-.5L5.6 6.13l-.05-.28L3.2 7.97a.12.12 0 0 0 0 .17l.6.67c.04.05.12.05.17 0L5.8 7.18l-.05-.28z"/>
    <path d="M5.6 6.13l.15.76.2-.18-.14-.77zM6.9 8.1l-.65.12-.24-1.24-.2.19.23 1.21c.01.07.07.11.14.1l.89-.17c.06-.02.1-.08.1-.14l-.38-1.9-.2.19zM6.53 6.19l.21-.2-.15-.76-.2.2zM5.19 2.74l.65-.13.5 2.54.2-.19-.49-2.51a.12.12 0 0 0-.14-.1l-.89.18a.12.12 0 0 0-.09.14l.62 3.18.2-.18z"/>
    <path d="M6.39 5.42l.2-.19-.05-.27-.2.19zM6.53 6.19l.06.27.2-.19L6.74 6zM5.96 6.7l-.21.2.05.27.21-.2zM5.8 5.94l-.04-.27-.21.18.05.28zM2.74 9.54l-.1.66 5.54.77.09-.66zm-.35.74l.13-.9c0-.06.07-.1.14-.1l5.76.81c.07.01.11.07.1.14l-.12.9a.12.12 0 0 1-.14.1l-5.76-.81a.12.12 0 0 1-.1-.14"/>
</svg>
