<svg xmlns="http://www.w3.org/2000/svg" viewBox="0 0 33 21">
  <defs>
    <clipPath id="a">
      <path d="M0 20.82h32.66V0H0z"/>
    </clipPath>
  </defs>
  <path fill="#dc291b" d="M4.11 5.53h24.43v13.46c0 1-.84 1.83-1.87 1.83H5.98a1.85 1.85 0 01-1.87-1.83z"/>
  <path fill="#c92214" d="M4.11 5.53h24.43v.46c-21.48.57-24.6 6.92-22.8 14.81A1.85 1.85 0 014.1 19z"/>
  <path fill="#40484c" d="M4.02 4.6h24.62c.18 0 .34.15.34.34v.26a.34.34 0 01-.34.33H4.02a.34.34 0 01-.34-.33v-.26c0-.19.15-.34.34-.34"/>
  <path fill="#dc291b" d="M11.06 1.49h10.53c4.33 0 6.86 1.4 6.86 3.1H4.2c0-1.7 2-3.1 6.85-3.1"/>
  <path fill="#c92214" d="M11.06 1.49h10.53c2.12 0 3.79.34 4.96.87H5.9c1.11-.53 2.8-.87 5.16-.87"/>
  <g clip-path="url(#a)">
    <path fill="#40484c" d="M14.63 1.5h3.4V.86h-3.4z"/>
  </g>
  <g clip-path="url(#a)">
    <path fill="#c92214" d="M14.4 0h3.86c.24 0 .44.2.44.43a.43.43 0 01-.44.42H14.4a.43.43 0 01-.43-.42c0-.24.2-.43.43-.43"/>
  </g>
  <g clip-path="url(#a)">
    <path fill="#40484c" d="M4.11 6.55H.37c-.41 0-.57 1.38 0 1.47a7.1 7.1 0 013.74.69z"/>
  </g>
  <g clip-path="url(#a)">
    <path fill="#40484c" d="M28.55 6.55h3.75c.4 0 .56 1.38 0 1.47a7.1 7.1 0 00-3.75.69z"/>
  </g>
  <g clip-path="url(#a)">
    <path fill="#ff8a8b" d="M27.27 6.94c.3 0 .54.23.54.52v11.53a.53.53 0 01-.54.53.53.53 0 01-.53-.53V7.46c0-.29.24-.52.53-.52"/>
  </g>
  <g clip-path="url(#a)">
    <path fill="#ff8a8b" d="M26.9 3.37h.07c.28 0 .5.22.5.49a.5.5 0 01-.5.5h-.07a.5.5 0 01-.5-.5.5.5 0 01.5-.49"/>
  </g>
</svg>
