<svg xmlns="http://www.w3.org/2000/svg" viewBox="0 0 9.248 8.238">
    <path d="M1.134 2.648l-.069-.082c-.007-.01.001-.027.015-.027 0 0 .745.002 1.834.002l3.992-.002h1.22c.062 0 .053.036.037.054l-.067.072c-.125.131-.266.28-.266.443v4.167c0 .436-.355.79-.79.79H2.174a.791.791 0 0 1-.79-.79V3.108c0-.172-.14-.331-.25-.46m7.748.44a.116.116 0 0 1 .14.084l.05.189a.122.122 0 0 1-.013.088.118.118 0 0 1-.071.053l-.987.253v-.441zM.26 3.502a.118.118 0 0 1-.072-.053.118.118 0 0 1-.012-.088l.048-.189c.016-.062.08-.1.142-.084l.845.217v.44zm.149-.581a.29.29 0 0 0-.352.208l-.048.189a.288.288 0 0 0 .208.351l.994.255v3.35c0 .532.433.964.964.964h4.864a.965.965 0 0 0 .963-.963V3.933l1.03-.264a.289.289 0 0 0 .207-.351l-.048-.19a.29.29 0 0 0-.351-.207l-.837.215v-.027c0-.095.126-.228.218-.325.115-.121.206-.217.163-.317-.038-.089-.151-.1-.258-.1H6.905l-3.991.001c-1.089 0-1.703 0-1.826-.002H1.08c-.08 0-.178.01-.214.09-.043.094.037.187.139.304.092.108.207.24.207.348v.018zM4.711 1.934a.085.085 0 0 0 .103-.065c.109-.467-.013-.703-.121-.91-.111-.215-.207-.4-.05-.844a.086.086 0 1 0-.162-.057c-.182.514-.06.751.059.98.103.199.2.387.106.793a.087.087 0 0 0 .065.103M3.423 1.934a.086.086 0 0 0 .103-.065c.109-.467-.014-.703-.121-.91-.111-.215-.207-.4-.05-.844a.086.086 0 1 0-.162-.057c-.182.514-.06.751.059.98.103.199.2.387.106.793a.087.087 0 0 0 .065.103M5.879.005a.086.086 0 0 0-.11.053c-.182.514-.06.751.06.98.102.199.2.387.106.793a.087.087 0 0 0 .084.105c.04 0 .074-.027.084-.067.108-.467-.014-.703-.122-.91-.11-.215-.207-.4-.05-.844a.086.086 0 0 0-.052-.11"/>
</svg>
