<svg xmlns="http://www.w3.org/2000/svg" viewBox="0 0 9.06 9.76">
    <path d="M8.82 7.18c0 .12-.1.23-.23.23H.47a.23.23 0 0 1-.23-.23v-.94h5.65a.1.1 0 0 0 .05.02c.02 0 .05 0 .07-.02h2.81zm-.35 1.05c0 .13-.1.24-.24.24H.83a.23.23 0 0 1-.24-.24v-.58h7.88zM8.1 9.3c0 .13-.1.23-.23.23h-6.7a.23.23 0 0 1-.23-.23v-.58H8.1zM3.2 6a1.44 1.44 0 0 1-.13-.58c0-.51.24-1.28.74-1.29.38-.01.66.16.67.16l.05.01H4.59s.34-.18.66-.18c.13 0 .26.06.37.17.27.26.39.76.39 1.13 0 .2-.05.4-.13.59zm3.07 0l-.02-.23c0-.7.35-1.29.76-1.29.41 0 .76.6.76 1.3 0 .07 0 .15-.02.23zM.59 4.19a3.94 3.94 0 0 1 7.88 0V6h-.49L8 5.76c0-.8-.38-1.42-.88-1.5v-.17c0-.25.1-.5.27-.67l.05-.04a.12.12 0 0 0 0-.17.12.12 0 0 0-.17 0l-.05.04c-.22.22-.34.53-.34.84v.16c-.3.05-.55.29-.7.64a1.62 1.62 0 0 0-.4-.78.76.76 0 0 0-.54-.24c-.23 0-.45.07-.6.12-.01-.37-.2-.72-.52-.93l-.05-.04a.12.12 0 0 0-.14.2l.06.04c.25.16.4.43.41.73a1.62 1.62 0 0 0-.6-.1c-.64 0-.98.8-.98 1.52 0 .2.04.4.1.59H1.37a1.47 1.47 0 0 1 1.4-1.88.12.12 0 0 0 0-.24A1.7 1.7 0 0 0 1.12 6H.6zM8.94 6H8.7V4.18a4.18 4.18 0 0 0-8.36 0V6H.12a.12.12 0 0 0-.12.12v1.06c0 .21.15.39.35.44v.61c0 .22.15.4.36.45v.61c0 .26.2.47.47.47h6.7c.26 0 .47-.2.47-.47v-.6c.2-.06.36-.24.36-.46v-.6c.2-.06.35-.24.35-.45V6.12A.12.12 0 0 0 8.94 6"/>
</svg>
