<svg xmlns="http://www.w3.org/2000/svg" viewBox="0 0 33 22">
  <defs>
    <clipPath id="a">
      <path d="M28.29 2.29h2.33v2.8h-2.33z"/>
    </clipPath>
    <clipPath id="b">
      <path d="M10.92.95h5.24v5.22h-5.24z"/>
    </clipPath>
    <clipPath id="c">
      <path d="M.47 12.2h32.1v8.77H.47z"/>
    </clipPath>
    <clipPath id="d">
      <path d="M.47 12.2h32.1v8.77H.47z"/>
    </clipPath>
    <clipPath id="e">
      <path d="M0 21.87h33.04V12.2H0z"/>
    </clipPath>
  </defs>
  <g clip-path="url(#a)">
    <path fill="#709620" d="M28.29 4.02a5.45 5.45 0 001.5-1.65c.14-.25 1.02.12.79.47a7.88 7.88 0 00-1 2.25L28.3 4.02"/>
  </g>
  <path fill="#567f00" d="M29.42 4.96L28.4 4.1l.05-.05c1.25-1.12 1.22-1.24.46.29 1.43-1.44 1.08-1 .51.6"/>
  <path fill="#a7cf52" d="M23.59 15.59c2.8-2.77 5.06-5.8 6.5-9.13.83-1.68-1.93-3.6-3.08-2.26a44.6 44.6 0 01-8.71 7.35c-4.77 3.19.42 8.84 5.29 4.04"/>
  <path fill="#9bc344" d="M23.58 15.59c2.8-2.77 5.06-5.8 6.5-9.13.39-.77 0-1.6-.62-2.13.1.3.04.63-.21 1.04-2.6 4.25-8.27 12.82-12.78 9.73.5 2.25 3.88 3.68 7.11.49"/>
  <path fill="#75a710" d="M27.43 4.52c-2.62 4.11-9.64 6.43-10.27 10.78 2.28-4.43 8.83-7 10.27-10.78M27.23 6.91a427.67 427.67 0 01-9.05 8.62c3.47-1.62 6.78-5.7 9.05-8.62M18.46 16.5c5.07.68 10.86-9 11.06-10.56-3.07 4.37-5.86 9.02-11.06 10.56"/>
  <path fill="#699a00" d="M18.46 16.5c5.07.68 10.86-9 11.06-10.56-3.07 4.37-5.86 9.02-11.06 10.56"/>
  <g>
    <path fill="#fff580" d="M16.75 15.77c.13-.12.44-.01.7.24.26.25.37.55.25.67-.13.13-.44.02-.7-.23-.26-.25-.37-.56-.25-.68"/>
  </g>
  <g>
    <path fill="#f32a14" d="M8.42 6.89c-1 .24-1.66.69-2.04 1.32C5.31 10 7.7 12.9 10.11 15.22c.94.9 3.75 4.11 4.86 3.03 1.33.77 3.54-.4 3.64-1.94 1.52-.31.44-4.44.21-5.72-.58-3.3-1.65-6.9-3.73-7.01-.73-.04-1.48.26-2.23.95a4.7 4.7 0 00-4.44 2.36"/>
    <path fill="#d2220e" d="M8.42 6.89c.33-.08.62-.06.89 0a2.26 2.26 0 00-.5-.58c-.15.18-.28.38-.4.58M12.15 4.53c0 .3.07.6.21.9.08-.36.2-.68.5-.9a4.53 4.53 0 00-.7 0M8.3 9.26c-1.24 1.02 4.3 7.1 6.12 9.22.2 0 .39-.08.54-.23-1.24-1.28-6.9-7.44-6.66-8.99M14.88 5.76c1.42.67 3.36 8.8 3.73 10.55.21-.04.37-.16.5-.33-.75-2.69-2.68-10.68-4.22-10.22"/>
    <g clip-path="url(#b)" transform="rotate(-28 12.5 9.5)">
      <path fill="#709620" d="M10.92 6.17c.91-.86.83-1.16 1.1-2.23.38-1.56 1.58-2.36 3.12-2.94.59-.33 1.6 1.1.6 1.19-1.13.1-2.64.8-2.83 1.78-.11.6.53 1.55 1.06 2.07a5.05 5.05 0 00-1.33-.17c-.69 0-1.3.12-1.72.3"/>
    </g>
    <path fill="#75a710" d="M9.54 7.3c.4-1.19.2-1.4-.08-2.48-.39-1.56.3-2.82 1.38-4.07 0 0-.02.42.86.5A3.25 3.25 0 0010 5.49c.22.52.5.62.75.85-.52.3-.95.65-1.2.98"/>
    <g>
      <path fill="#d2220e" d="M13.45 6.15c-.3-.36-1.34-.21-2.4.35-.99.52-1.66 1.24-1.64 1.7a5.5 5.5 0 011.73-1.38 5.24 5.24 0 012.3-.67"/>
    </g>
  </g>
  <g>
    <g clip-path="url(#c)">
      <path fill="#864026" d="M32.57 12.2c-1.3 5.1-4.18 8.02-8.68 8.77H9.15c-4.5-.75-7.39-3.68-8.68-8.77z"/>
    </g>
    <g clip-path="url(#d)">
      <path fill="#74341f" d="M32.57 12.2a17.44 17.44 0 01-.67 2.09l-15.9.83c-13 .26-13.34 4.1-3.31 5.85H9.15c-4.5-.75-7.39-3.68-8.68-8.77z"/>
    </g>
    <g clip-path="url(#e)">
      <path fill="#5b2918" d="M9.28 21.87h14.47v-.9H9.28z"/>
    </g>
    <g clip-path="url(#e)">
      <path fill="#864026" d="M.53 12.2H32.5c.29 0 .53.23.53.52v.54a.52.52 0 01-.53.52H.53a.52.52 0 01-.53-.52v-.54c0-.29.24-.52.53-.52"/>
    </g>
  </g>
</svg>
