<svg xmlns="http://www.w3.org/2000/svg" viewBox="0 0 4.988 11.869">
    <path d="M3.187 0L1.676.01v.58H1.46c-.427 0-.75.408-.75.882 0 .475.323.883.75.883h.004V4.55c0 .338-.272.609-.61.609A.857.857 0 0 0 0 6.014v5.214c0 .353.288.641.64.641h3.705a.645.645 0 0 0 .643-.64V6.013a.859.859 0 0 0-.857-.856.608.608 0 0 1-.61-.61V2.356h.004c.428 0 .752-.408.752-.883 0-.474-.324-.882-.752-.882h-.213V0h-.125zm-.123.248V.59H1.922V.254L3.064.248zM1.461.836h2.064c.266 0 .504.272.504.636 0 .365-.238.637-.504.637H1.461c-.266 0-.504-.272-.504-.637 0-.364.238-.636.504-.636zm.252 1.52h1.562v1.122H1.713V2.355zm0 1.37h1.562v.823c0 .471.385.855.856.855.338 0 .61.272.61.61v5.214a.392.392 0 0 1-.396.393H.641a.392.392 0 0 1-.395-.393V6.014c0-.338.272-.61.61-.61a.859.859 0 0 0 .857-.855v-.823zm-.276 2.488v.123a.368.368 0 0 1-.37.369H.946v3.317h.123c.205 0 .37.164.37.37v.122h2.125v-.123c0-.205.164-.369.37-.369h.122V6.706h-.123a.367.367 0 0 1-.369-.37v-.122H1.437zm.233.246h1.66c.049.24.24.43.48.48v2.85a.62.62 0 0 0-.48.48H1.67a.619.619 0 0 0-.48-.48V6.94c.24-.05.43-.24.48-.48z" />
</svg>