<svg xmlns="http://www.w3.org/2000/svg" viewBox="0 0 11 37">
  <defs>
    <clipPath id="a">
      <path d="M0 3.06h10.95v33.26H0z"/>
    </clipPath>
    <clipPath id="b">
      <path d="M.63 28.48h2.49v7.84H.63z"/>
    </clipPath>
  </defs>
  <path fill="#ffc900" d="M3.54 0h3.87c.28 0 .52.23.52.53V2.8a.26.26 0 01-.26.26h-4.4a.27.27 0 01-.26-.26V.53c0-.3.25-.53.53-.53"/>
  <path fill="#f9b700" d="M7.93 2.08v.72a.26.26 0 01-.26.26h-4.4a.27.27 0 01-.26-.26v-.72z"/>
  <g clip-path="url(#a)">
    <path fill="#ffc900" d="M3.53 3.06c-.1 2 .46 5.58-1.1 7-1.19 1.11-2.7 2.26-2.39 3.87 1.13 5.91.59 13.66.59 19.74v1.9c0 .41.35.74.77.74h8.13c.44 0 .78-.33.78-.74v-1.9c0-6.08-.53-13.83.6-19.74.31-1.6-1.2-2.76-2.4-3.86-1.55-1.43-1-5.02-1.09-7.01z"/>
  </g>
  <path fill="#ffed84" d="M8.07 35.76h.45c.32 0 .58-.32.58-.72V33.2c0-5.88-.4-13.37.45-19.1.23-1.54-.9-2.66-1.8-3.73C6.58 9.01 7 5.53 6.94 3.61H6.6c.05 1.94-.28 5.41.6 6.8.7 1.08 1.56 2.2 1.38 3.76-.65 5.75-.34 13.27-.34 19.18v1.84c0 .23-.07.44-.17.57"/>
  <path fill="#39474b" d="M.59 18.43c.23 3.25.18 6.74.12 10.05h9.54c-.07-3.31-.11-6.8.1-10.05a15.18 15.18 0 00-4.87-.75c-1.84 0-3.53.28-4.89.75"/>
  <path fill="#677980" d="M8.2 28.48h.85c-.06-3.42-.1-7.04.1-10.4a9.4 9.4 0 00-.85-.16 180.6 180.6 0 00-.1 10.56"/>
  <g clip-path="url(#b)">
    <path fill="#f9b700" d="M.71 28.48c-.04 1.8-.08 3.56-.08 5.2v1.89c0 .41.35.75.78.75h1.67c.2-.14-.46-.34-.46-.75v-1.9c0-1.63.03-3.39.04-5.19z"/>
  </g>
  <path fill="#f9b700" d="M3.53 3.06c-.1 2 .46 5.58-1.1 7-1.19 1.11-2.7 2.26-2.39 3.87a41.04 41.04 0 01.55 4.5 13.1 13.1 0 011.98-.5 58.22 58.22 0 00-.3-4c-.19-1.6.7-2.76 1.4-3.87.93-1.42.6-5 .65-7z"/>
  <path fill="#2a383d" d="M.59 18.43c.23 3.25.18 6.74.12 10.05h1.95c.04-3.49.08-7.17-.08-10.55-.72.13-1.38.29-1.99.5"/>
  <path fill="#ebebeb" d="M3.53 3.06c-.06.94.05 2.23 0 3.48h3.88c-.04-1.25.05-2.54.01-3.48z"/>
  <path fill="#fdfdfd" d="M6.58 6.53h.34c-.01-1.07.04-2.12.02-2.92H6.6c.01.8-.03 1.85-.02 2.92"/>
  <path fill="#d4d5d5" d="M3.53 3.06c-.06.94.05 2.23 0 3.48h.8C4.36 5.29 4.29 4 4.3 3.06z"/>
  <g>
    <path fill="#677980" d="M3.56 25.32h3.82c.12 0 .23.11.23.25v.41a.24.24 0 01-.23.24H3.57a.24.24 0 01-.25-.23v-.42c0-.14.1-.25.24-.25"/>
  </g>
  <g>
    <path fill="#8ca4ad" d="M5.48 19.78c.92 0 1.67.76 1.67 1.7a1.7 1.7 0 01-1.67 1.72c-.93 0-1.69-.78-1.69-1.72a1.7 1.7 0 011.69-1.7"/>
  </g>
</svg>
