<svg xmlns="http://www.w3.org/2000/svg" viewBox="0 0 10.184 10.878">
  <path d="M4.11 10.877a.123.123 0 0 1-.117-.084c-.67-2.013-.733-4.236-.17-6.099a.124.124 0 0 1 .236.072c-.548 1.815-.487 3.984.168 5.95a.123.123 0 0 1-.117.162M.329 6.876c.11.208.383.656.864 1.009.363.266.851.302 1.15.223.168-.045.29-.125.334-.223.062-.138.009-.294-.047-.399-.17-.324-.571-.603-.974-.676a2.747 2.747 0 0 0-1.327.066M2.03 8.393a1.68 1.68 0 0 1-.983-.309A3.195 3.195 0 0 1 .044 6.855L0 6.747l.106-.05c.026-.013.652-.302 1.595-.13.48.087.941.411 1.148.804.114.218.133.436.053.615-.075.168-.251.296-.495.361-.111.03-.24.046-.377.046"/>
  <path d="M3.984 4.448a.123.123 0 0 1 .12.095 1.185 1.185 0 0 0 1.76.747 1.183 1.183 0 0 0 .182-1.91.123.123 0 0 1 .054-.212 1.185 1.185 0 0 0 .76-1.762 1.184 1.184 0 0 0-1.901-.192.124.124 0 0 1-.211-.054 1.186 1.186 0 0 0-2.306-.021c-.11.433.029.886.364 1.184a.124.124 0 0 1-.054.213 1.182 1.182 0 0 0-.76 1.761 1.183 1.183 0 0 0 1.901.192.123.123 0 0 1 .091-.04m1.278 1.254a1.435 1.435 0 0 1-1.336-.905 1.43 1.43 0 0 1-2.147-.375 1.423 1.423 0 0 1-.155-1.087c.116-.454.442-.815.87-.98a1.428 1.428 0 0 1-.29-1.278A1.436 1.436 0 0 1 4.924.905a1.434 1.434 0 1 1 1.432 2.442c.296.352.407.824.291 1.278-.095.371-.33.683-.659.878-.224.132-.474.2-.727.2"/>
  <path d="M3.607 2.77l-.913-.235.06-.24.915.235zM6.082 3.404l-.896-.23.06-.239.898.23zM5.299 4.45a.123.123 0 0 1-.107-.06l-.46-.78a.123.123 0 0 1 .043-.169.123.123 0 0 1 .169.043l.461.78a.123.123 0 0 1-.106.186M4.012 2.274a.124.124 0 0 1-.107-.06l-.459-.775a.124.124 0 0 1 .213-.126l.46.775a.123.123 0 0 1-.107.186M5.135 2.555a.123.123 0 0 1-.063-.23l.766-.453a.123.123 0 0 1 .126.213l-.766.453a.123.123 0 0 1-.063.017M2.95 3.847a.123.123 0 0 1-.063-.23l.771-.455a.123.123 0 1 1 .126.212l-.77.456a.123.123 0 0 1-.063.017"/>
  <path d="M4.424 2.168a.68.68 0 0 0-.66.514.684.684 0 1 0 .66-.514m.003 1.614a.931.931 0 0 1-.475-1.731.924.924 0 0 1 .705-.1.924.924 0 0 1 .67 1.132.924.924 0 0 1-.9.699"/>
  <path d="M4.112 4.578l-.239-.062.235-.913.24.062zM4.753 2.086l-.24-.061.23-.897.24.062zM7.097 6.013c-.23 0-.44.019-.61.063-.56.144-.972.45-1.19.885-.217.436-.228.986-.028 1.472.205.499.595.88 1.043 1.016.465.144.994.03 1.53-.325.808-.535 1.726-2.192 1.984-2.68-.44-.112-1.77-.43-2.73-.43M6.72 9.755c-.165 0-.325-.023-.48-.07-.518-.16-.966-.593-1.2-1.16-.226-.55-.213-1.177.037-1.675.25-.5.717-.851 1.348-1.014 1.09-.283 3.512.38 3.614.409l.145.04-.067.134c-.046.091-1.138 2.247-2.138 2.91-.427.283-.854.426-1.26.426"/>
  <path d="M7.019 8.821a.123.123 0 0 1-.07-.022l-.889-.616a.123.123 0 1 1 .141-.203l.888.616c.056.04.07.116.032.172a.124.124 0 0 1-.102.053M7.029 7.715c-.007 0-.014 0-.022-.002a.124.124 0 0 1-.1-.143l.129-.722a.121.121 0 0 1 .143-.1.124.124 0 0 1 .1.143l-.128.722a.124.124 0 0 1-.122.102"/>
  <path d="M3.837 9.604a.124.124 0 0 1-.07-.022.124.124 0 0 1-.031-.172c.387-.555 1.214-.976 1.249-.993l3.378-1.472a.123.123 0 1 1 .098.226L5.09 8.641c-.002 0-.8.407-1.151.91a.124.124 0 0 1-.102.053"/>
</svg>
