<svg xmlns="http://www.w3.org/2000/svg" viewBox="0 0 31 31">
  <defs>
    <clipPath id="a">
      <path d="M0 13.59h11.512v3.605H0z"/>
    </clipPath>
    <clipPath id="b">
      <path d="M19.35 13.66h11.512v3.605H19.35z"/>
    </clipPath>
  </defs>
  <path fill="#f89f1b" d="M16.048 11.512c.708-.799 1.217-3.002 1.217-5.596 0-3.268-.808-5.916-1.803-5.916-.995 0-1.802 2.648-1.802 5.916 0 2.594.509 4.797 1.216 5.596zM14.01 11.726c.214-1.045-.447-3.208-1.744-5.454-1.634-2.83-3.657-4.72-4.519-4.222-.862.497-.237 3.195 1.398 6.024 1.296 2.247 2.839 3.9 3.851 4.238zM12.352 12.936c-.337-1.011-1.992-2.554-4.238-3.852-2.83-1.633-5.527-2.26-6.024-1.396-.498.862 1.392 2.885 4.222 4.518 2.247 1.298 4.41 1.959 5.454 1.745z"/>
  <g clip-path="url(#a)">
    <path fill="#f89f1b" d="M11.512 14.807c-.798-.708-3.002-1.217-5.596-1.217-3.268 0-5.916.807-5.916 1.803 0 .995 2.649 1.802 5.916 1.802 2.594 0 4.798-.51 5.596-1.217z"/>
  </g>
  <path fill="#f89f1b" d="M11.727 16.85c-1.046-.214-3.209.447-5.455 1.744-2.83 1.633-4.72 3.656-4.222 4.519.497.862 3.195.236 6.024-1.397 2.247-1.297 3.901-2.84 4.238-3.852zM12.936 18.51c-1.012.338-2.555 1.992-3.852 4.238-1.633 2.83-2.26 5.527-1.396 6.024.861.499 2.884-1.392 4.518-4.222 1.297-2.246 1.959-4.409 1.745-5.454zM14.807 19.35c-.708.798-1.217 3.002-1.217 5.596 0 3.268.807 5.916 1.803 5.916.995 0 1.802-2.648 1.802-5.916 0-2.594-.51-4.798-1.217-5.596zM16.85 19.136c-.214 1.045.447 3.209 1.744 5.455 1.634 2.83 3.657 4.72 4.519 4.222.862-.498.237-3.195-1.397-6.025-1.297-2.246-2.84-3.9-3.852-4.238zM18.51 17.924c.337 1.013 1.991 2.555 4.238 3.852 2.83 1.634 5.527 2.259 6.025 1.397.497-.862-1.393-2.886-4.222-4.52-2.247-1.296-4.41-1.958-5.455-1.743z"/>
  <g clip-path="url(#b)">
    <path fill="#f89f1b" d="M19.35 16.048c.798.708 3.002 1.217 5.596 1.217 3.268 0 5.916-.806 5.916-1.803 0-.995-2.648-1.802-5.916-1.802-2.594 0-4.798.51-5.596 1.217z"/>
  </g>
  <path fill="#f89f1b" d="M19.136 14.01c1.045.215 3.208-.447 5.454-1.744 2.83-1.634 4.72-3.656 4.223-4.519-.498-.862-3.195-.237-6.025 1.398-2.246 1.296-3.9 2.839-4.238 3.852z"/>
  <g>
    <path fill="#f89f1b" d="M17.925 12.353c1.011-.338 2.554-1.993 3.851-4.239 1.634-2.83 2.26-5.527 1.397-6.024-.862-.498-2.885 1.392-4.519 4.222-1.297 2.246-1.959 4.41-1.744 5.455z"/>
  </g>
  <g>
    <path fill="#f89f1b" d="M18.491 15.425a3.066 3.066 0 11-6.132 0 3.066 3.066 0 016.132 0"/>
  </g>
</svg>
