<svg xmlns="http://www.w3.org/2000/svg" viewBox="0 0 11.73 9.78">
    <path d="M10.5 3.94a3.3 3.3 0 0 1-1.51.4c-.18 0-.33-.03-.46-.07l.2-.5.04-.08c.24-.43.5-.91.9-1.14.33-.2.7-.29 1.05-.29.29 0 .55.06.77.18 0 .57-.39 1.16-.99 1.5M8.93 8.2c-.6.82-1.52 1.3-2.53 1.3-.57 0-1.1-.16-1.5-.45-1.38-1-1.32-2.85-.47-4.06l.02-.03c.94-1.28 2.4-1.82 3.24-1.2.18.12.32.3.42.5-.45.04-.95.23-1.42.56a.12.12 0 0 0-.02.17c.02.03.06.05.1.05.02 0 .04 0 .06-.02a2.56 2.56 0 0 1 1.67-.5l.08.01c.18.04.34.11.49.22.85.6.79 2.16-.14 3.45M3 9.46C1.64 9.46.24 8.31.24 6.4c0-1.6.86-2.91 1.91-2.91.23 0 .45.06.66.18-.36.3-.66.76-.84 1.33a.12.12 0 0 0 .23.07c.26-.82.8-1.41 1.39-1.55h.01l.24-.03h.01c.41 0 .8.2 1.14.57-.27.22-.51.47-.73.77l-.02.03c-1.1 1.51-.79 3.2.15 4.14-.44.3-.93.47-1.4.47m.07-8.07C3.34.76 3.89.32 4.46.24c.34.47.37 1.17.08 1.8-.32.69-.92 1.25-1.42 1.35-.2-.47-.36-1.34-.06-2m8.65.93a.14.14 0 0 0-.04-.05c-.27-.16-.6-.25-.95-.25-.4 0-.8.11-1.16.32-.21.12-.38.29-.53.48.12-.45.21-.91.22-1.32a.12.12 0 0 0-.12-.12.12.12 0 0 0-.12.11 7.58 7.58 0 0 1-.5 2.18 4.7 4.7 0 0 1-.23.4c-.12-.21-.27-.38-.45-.51-.7-.5-1.75-.33-2.66.34a1.8 1.8 0 0 0-1.26-.66c.36-.29.66-.7.85-1.1.33-.73.28-1.55-.14-2.1a.13.13 0 0 0-.05-.03.1.1 0 0 0-.06 0C3.83.05 3.17.56 2.84 1.3c-.1.2-.15.44-.17.67A5.18 5.18 0 0 0 2.1.8a.12.12 0 1 0-.2.13c.49.7.79 1.83.92 2.47-.21-.1-.44-.16-.67-.16C.97 3.24 0 4.65 0 6.4 0 8.46 1.52 9.7 3 9.7c.52 0 1.08-.2 1.57-.54l.16.13c.43.31 1.02.49 1.63.49a3.36 3.36 0 0 0 2.76-1.43c1-1.4 1.04-3.1.1-3.79.48-.04 1-.19 1.4-.41.7-.4 1.13-1.1 1.11-1.78 0-.02 0-.03-.02-.05"/>
</svg>
