<svg xmlns="http://www.w3.org/2000/svg" viewBox="0 0 22 29">
  <defs>
    <clipPath id="a">
      <path d="M0 .35h12.1v4.99H0z"/>
    </clipPath>
    <clipPath id="b">
      <path d="M9.73 27.01h2.67v1.95H9.73z"/>
    </clipPath>
  </defs>
  <path fill="#f7d301" d="M12.19 6.07s2.56-2.61 5.07.66c2.5 3.26-.24 3.67 3.49 8.9 3.73 5.23-2.02 16.52-8.8 12 0 0-.58-.85-1.27-.09s-2.02 1.53-4.32.38a8.5 8.5 0 01-4.51-6.14c-.47-2.72.1-6.16 1.94-7.85 1.83-1.7 2.5-5.95 2.5-5.95s1.86-4.8 5.27-2.03c0 0 .27.41.62.12"/>
  <g clip-path="url(#a)">
    <path fill="#368d1c" d="M0 4.94s1.18-2.46 2.91-3.53c1.73-1.06 2.86-1.6 6.74-.3 0 0 .57.21 1.12.08.55-.14 1.03-.34 1.3-.05.28.29-1.38-.03-1.9.46-.5.49-1.18 2.1-3.69 3.08-2.5.97-5.9.7-6.48.26"/>
  </g>
  <path fill="#597624" d="M10.15 1.22S3.4 1.95 0 4.95c0 0 1.61-2.97 2.91-3.53 1.3-.56 1.56-1.91 7.24-.2"/>
  <path fill="#8a882b" d="M11.74.22s.44-.52.69.03c.24.54-.23 5.94-.23 5.94s-.76.4-.66-.47c.1-.86.2-5.5.2-5.5"/>
  <path fill="#e5c110" d="M21.78 18.12c.13.7.17 1.44.12 2.18a14.74 14.74 0 00-.12-2.18M3.79 13.93c1.83-1.7 2.5-5.95 2.5-5.95s1.12-2.9 3.22-2.89c-.24.6-.37 1.06-.37 1.06s-.61 5.22-2.16 7.31c-1.54 2.1-2.07 6.32-1.72 9.64.2 1.92.75 3.64 1.55 5.02a7.03 7.03 0 01-.45-.2 8.5 8.5 0 01-4.52-6.14c-.46-2.73.11-6.16 1.95-7.85"/>
  <path fill="#ffe473" d="M17.4 9.2c.12.9-.05 1.66-.37 1.7-.33.05-.69-.65-.81-1.55s.04-1.66.37-1.7c.32-.05.68.64.8 1.54"/>
  <g>
    <g clip-path="url(#b)">
      <path fill="#42210b" d="M10.57 27.26s.32-.52.83-.06c.52.45 1.03 1.2 1 1.45-.03.25-.32-.7-.83-.6-.51.1-.4.89-.4.89s-.2.2-.33-.66c-.14-.87-.94.42-.94.42s-.38.26 0-.46.84-1.26 1.08-1.22"/>
    </g>
  </g>
</svg>
