<svg xmlns="http://www.w3.org/2000/svg" viewBox="0 0 9.29624 11.81239">
    <path d="M7.36941 6.16275c.1323-.86783.49883-2.41617 1.48026-3.30694.08008-.07197.13653-.115.17498-.14076-.06385.42228-.81915 1.9424-1.65524 3.4477M6.21477 1.70364c.08361-.12347.139-.18168.17075-.20884.11148.34642-.1905 2.16111-.57185 3.85233-.272-.60325-.6911-2.03024.4011-3.64349m-4.4083 4.85105c1.30562-.94016 3.0808-.6604 3.95287-.4378-1.73779.28892-3.48686.50341-3.95288.4378M4.05154.37473c.05927-.07232.09631-.09807.11254-.10654.17815.19226.09984 1.6644-.08431 3.12032-.24871-.79552-.60713-2.30364-.02822-3.01378M1.42265 4.9499c.02434-.0328.06914-.08396.15204-.15804.72002-.64876 1.76742-.62795 2.36044-.54893-1.08373.393-2.20663.7306-2.51248.70697M.2994 1.63767c.03881-.0046.09878-.0071.19015-.0021 1.37583.07232 2.17135.95074 2.5153 1.45133C1.78213 2.53586.54317 1.89663.2994 1.63769m8.91364.81738c-.14676-.11747-.34678.02928-.54046.20532-1.24918 1.13348-1.55116 3.18382-1.6196 3.88585-.3302-.23919-.68721-.52635-1.04387-.86925.0589-.25682.26035-1.15005.4244-2.0514.40816-2.24578.18802-2.3421.05643-2.3996-.1838-.08078-.35278.12171-.49389.3295-.96484 1.42558-.8068 2.74285-.5602 3.51896-.03635-.04163-.07339-.0815-.10937-.12453-.36336-.43639-.73237-.78599-1.0488-1.05199.20037-1.39523.4512-3.67382-.01306-3.87773-.12911-.0568-.26952.0063-.41769.18768-.68968.84596-.25082 2.55729.012 3.36127-.20885-.1524-.36337-.24907-.42863-.28787-.13547-.26388-1.0093-1.8087-2.927-1.90923C.28 1.3604.0461 1.3724.00341 1.55196c-.07303.30974 1.02588.96273 3.26602 1.94099.02963.01693.3041.17991.68404.4833-.641-.08537-1.75578-.09984-2.55588.61948-.17321.15593-.3369.33725-.23777.49918.13688.22366.94686.0762 2.41124-.43886.25435-.08925.52916-.1905.82267-.30197.23425.21554.48437.46954.7299.76447.22437.26881.45508.51152.68615.73483-.92498-.23953-2.78377-.5267-4.18817.50906-.1323.09807-.1778.1979-.13547.29669.05609.13123.13335.3108 2.55834-.0173 1.00048-.1351 1.99708-.3048 2.24967-.34818 1.10948.93874 2.09867 1.36383 2.15441 1.38747.03104.01341.06491.01341.0949.0028a.13282.13282 0 0 0 .07796-.07338c.02822-.06703-.0032-.14464-.0702-.17286-.0099-.0039-.51858-.22401-1.20862-.68862.16193-.28646.6149-1.09679 1.03929-1.91947 1.10913-2.15124.94862-2.28.83114-2.37454M5.44342 7.6376c-.36759 0-.66675.29916-.66675.66676 0 .3676.29916.6664.66675.6664.3676 0 .6664-.2988.6664-.6664s-.2988-.66675-.6664-.66675m0 1.5875c-.50764 0-.92075-.4131-.92075-.92075 0-.508.4131-.9211.92075-.9211.50765 0 .92075.4131.92075.9211 0 .50765-.4131.92075-.92075.92075M7.7363 10.22488c-.3676 0-.66675.29915-.66675.66675 0 .3676.29916.6664.66675.6664.3676 0 .66675-.2988.66675-.6664s-.29915-.66675-.66675-.66675m0 1.5875c-.50764 0-.92075-.4131-.92075-.92075 0-.508.4131-.9211.92075-.9211.50765 0 .92075.4131.92075.9211 0 .50764-.4131.92075-.92075.92075M2.73868 9.34294c-.3676 0-.66675.29915-.66675.66674 0 .3676.29915.6664.66675.6664.3676 0 .66675-.2988.66675-.6664 0-.36759-.29916-.66674-.66675-.66674m0 1.5875c-.50765 0-.92075-.4131-.92075-.92076 0-.508.4131-.9211.92075-.9211.50764 0 .92075.4131.92075.9211 0 .50765-.4131.92075-.92075.92075"/>
</svg>
