<svg xmlns="http://www.w3.org/2000/svg" viewBox="0 0 31 29">
  <defs>
    <clipPath id="a">
      <path d="M0 .08h30.99v24.18H0z"/>
    </clipPath>
  </defs>
  <path fill="#a8e550" d="M29.51 15.42c0 6.82-5.92 12.34-13.21 12.34-7.3 0-13.21-5.53-13.21-12.34C3.09 8.62 9 3.1 16.3 3.1c7.3 0 13.21 5.52 13.21 12.33"/>
  <path fill="#82cd3f" d="M28.49 9.79s3.85 3.15 1.9 9.3c-1.96 6.16-8.68 9.21-8.68 9.21s-1-3.64 1.02-4.67c2.01-1.04 3.86-14.43 3.86-14.43z"/>
  <g clip-path="url(#a)">
    <path fill="#70b437" d="M4.83 21.08s-3.2.03-2.8-1.89c.4-1.92-3.2-3.1-1.63-4.69 1.59-1.58.68-3.2 2.5-2.88 0 0-1.98-2.06.47-4.06 2.45-2 3.3-.8 3.54-2.4.24-1.6 1.27-3.7 4.5-3.17 3.25.51 4.9-2.88 6.08-1.63 1.19 1.26 4.11-1.48 4.35.74.24 2.21 3.32-2.3 3.85.76.53 3.06 2.52 3.52 1.58 4.53 0 0 5.06-1.36 3.38 2.07-1.69 3.43-3.8.4-4.12 3.15-.31 2.76 2 4.33.64 5.9-1.37 1.58-2.85 2.08-2.85 4.34 0 2.27-2.11 2.41-2.11 2.41s1.45-2.4-.21-5.14c-1.66-2.73 2.77-7.31 2.77-7.31s2.05-.67.7-3.77-2.4-1.68-2.42-3.22c0 0-5.14-2.96-10.67-1.17-5.52 1.78-6.7 4.64-7.86 6.2-1.16 1.56-2.64 7.45.31 11.23"/>
  </g>
  <path fill="#d7f989" d="M20.05 4.37c.32-.22-3.9.69-5.85 6.99 0 0-2.06-2.07-1.27-3.79 0 0-.84 1.28.53 4.97l-.53 5.32s-4.43-.79-3.32-9.3c0 0-3.85 4.82 2.9 10.73l-.32 3.99s-4.95-2.9-6-7.86c0 0-.54 5.05 5.42 9.14l.27 1.77h.95l.28-1.63s6.2.2 8.57-3.89c0 0-5.5 4.74-8.59 2.76l.37-2.02s6.43-.24 8.22-5.07c0 0-3.62 4.27-8.12 4.23l-.15-1.57s8.75-3 9.75-8.03c0 0-4.66 6.26-9.24 6.75l.75-4.97s8.12-2.02 8.91-6.1c0 0-5.38 5.26-8.33 4.96 0 0 1-4.77 4.8-7.38"/>
  <path fill="#74b93a" d="M5.55 23.18S3.6 18.3 8 18.75c4.39.44 3.87 2.2 3.87 2.2s1.86-1.94 3.09.5c0 0 2.45-1.04 3.28.44.83 1.47.36 1.7.36 1.7s4.39.44 4.11 4.17c0 0-1.07.92-1.62.4 0 0-10.6 3.8-15.54-4.98"/>
  <g>
    <path fill="#7fca3b" d="M6.49 24.27s1.9.83 2.77-1.27c.87-2.1 1.54.97 3.12.85 1.59-.11 2.18-1.62 3.11.17s1.48 2 2.23 1.6c.75-.4 2.7-.13 2.65.71-.05.85.8 1.1-.51 1.62-1.3.51-1.79.89-1.79.89s-5.3.42-7.5-.92-4.05-2.6-4.08-3.65"/>
  </g>
</svg>
