<svg xmlns="http://www.w3.org/2000/svg" viewBox="0 0 10.97 10.94">
    <path d="M7.33 4.85a1.55 1.55 0 0 0-.1-.35L10.08 3l.57.72zm-.22.48c-.06.63-.42 1.3-.96 1.86l-.64-.64a.12.12 0 0 0-.17 0 .12.12 0 0 0 0 .17l.63.63c-.14.13-.28.25-.44.35l-1.27.87c0-.01 0-.03-.02-.04l-.62-.62a.12.12 0 0 0-.17 0 .12.12 0 0 0 0 .17l.62.62-2.3 1.57-.55-.55a.12.12 0 0 0-.17 0 .12.12 0 0 0 0 .17l.52.52-.3.2a.52.52 0 0 1-.3.1.84.84 0 0 1-.52-.2v-.01c-.23-.27-.27-.6-.12-.82l1.06-1.56c0 .02 0 .04.02.06l.5.49c.02.02.05.03.08.03s.06 0 .08-.03a.12.12 0 0 0 0-.17l-.5-.5a.11.11 0 0 0-.08-.03L2.8 6.05c0 .03.01.05.03.07l.64.64a.12.12 0 0 0 .17 0 .12.12 0 0 0 0-.17L3 5.95c-.03-.03-.07-.03-.11-.02l.35-.52c.27-.4.61-.73.98-1l.8.8a.12.12 0 0 0 .17 0 .12.12 0 0 0 0-.17l-.77-.77c.45-.28.93-.45 1.36-.45a1.29 1.29 0 0 1 .94.37c.02 0 .02.01.03.02.28.28.4.67.36 1.12M7.27.32l.72.56-1.41 2.9a1.5 1.5 0 0 0-.43-.16zm2.3.39l.67.67-3.15 2.88a1.5 1.5 0 0 0-.17-.22l-.02-.02-.1-.08zm1.38 3l-.73-.94a.12.12 0 0 0-.15-.03L7.83 3.9l2.66-2.44a.12.12 0 0 0 .04-.09.12.12 0 0 0-.04-.09L9.65.45a.12.12 0 0 0-.18 0L7.14 3.18 8.24.9a.12.12 0 0 0-.03-.15L7.28.03a.12.12 0 0 0-.19.05L5.9 3.6h-.12c-.52 0-1.1.21-1.62.57h-.01v.01c-.42.29-.8.66-1.1 1.1L.12 9.55c-.2.3-.16.74.11 1.1l.03.03h.01a1.06 1.06 0 0 0 .68.26c.17.01.32-.03.44-.12L5.66 7.9a3.77 3.77 0 0 0 1.7-2.55V5.1l3.53-1.2a.12.12 0 0 0 .08-.08.12.12 0 0 0-.02-.1"/>
</svg>
