<svg xmlns="http://www.w3.org/2000/svg" viewBox="0 0 8.67 9.98">
    <path d="M4.34 6.62a1.63 1.63 0 1 1 0-3.26 1.63 1.63 0 0 1 0 3.26m4.15-2.03l.06.01c.04 0 .09-.02.1-.06a.12.12 0 0 0-.04-.17l-1.48-.85 1.48-.86a.12.12 0 1 0-.12-.21l-1.48.85V1.6a.12.12 0 1 0-.25 0v1.85l-.86.5c-.32-.47-.84-.8-1.44-.83v-1l1.6-.93a.12.12 0 1 0-.12-.21l-1.48.85V.13a.12.12 0 1 0-.25 0v1.7L2.73.98a.12.12 0 0 0-.12.21l1.6.93v1c-.6.03-1.12.36-1.43.83l-.87-.5V1.6a.12.12 0 1 0-.24 0v1.7L.19 2.45a.12.12 0 1 0-.13.21l1.48.86-1.48.85a.12.12 0 1 0 .13.22l1.6-.93.86.5a1.87 1.87 0 0 0 0 1.66l-.86.5-1.6-.93a.12.12 0 0 0-.17.05.12.12 0 0 0 .04.17l1.48.85-1.48.86a.12.12 0 1 0 .13.2l1.48-.85v1.71c0 .07.05.13.12.13.07 0 .12-.06.12-.13V6.53l.87-.5c.31.47.84.8 1.43.83v1l-1.6.93a.12.12 0 0 0 .12.21l1.48-.85v1.7a.12.12 0 0 0 .25 0v-1.7L5.94 9l.06.02c.05 0 .09-.02.11-.06a.12.12 0 0 0-.05-.17l-1.6-.93v-1c.6-.04 1.12-.36 1.44-.83l.86.5v1.85c0 .07.06.13.13.13.06 0 .12-.06.12-.13v-1.7l1.48.85.06.02c.04 0 .09-.03.1-.07a.12.12 0 0 0-.04-.16l-1.48-.86 1.48-.85a.12.12 0 0 0 .05-.17.12.12 0 0 0-.17-.05l-1.6.93-.87-.5a1.86 1.86 0 0 0 0-1.66l.87-.5z"/>
</svg>
