<svg xmlns="http://www.w3.org/2000/svg" viewBox="0 0 35 35">
  <defs>
    <clipPath id="a">
      <path d="M0 0h34.86v34.88H0z"/>
    </clipPath>
  </defs>
  <g clip-path="url(#a)">
    <path fill="#a4d1e7" d="M17.95.52v1.67L19.6.54a.5.5 0 01.71 0 .54.54 0 010 .74l-2.16 2.15a.54.54 0 01-.2.12v1.3l1.65-1.64a.5.5 0 01.71.71l-2.16 2.17a.53.53 0 01-.2.12V9.4c1.82.13 3.5.84 4.8 2l2.27-2.24a.47.47 0 01-.07-.25V5.84a.5.5 0 01.52-.49c.27 0 .5.22.5.5v2.34l.93-.94a.42.42 0 01-.08-.25V3.97c0-.27.25-.5.52-.5s.5.23.5.5V6.3l1.2-1.2a.5.5 0 01.72.7l-1.21 1.21h2.34c.3 0 .52.23.52.52a.5.5 0 01-.52.5h-3.03a.42.42 0 01-.25-.08l-.93.94h2.34c.27 0 .5.25.5.52a.5.5 0 01-.5.49h-3.03c-.1 0-.18-.03-.25-.05l-2.27 2.24a7.9 7.9 0 012 4.84h3.2a.3.3 0 01.13-.23l2.14-2.14a.5.5 0 01.72.71L30 16.95h1.31a.45.45 0 01.15-.23l2.14-2.14a.5.5 0 11.72.71l-1.65 1.66h1.7c.27 0 .5.22.5.49a.5.5 0 01-.5.52h-1.7l1.65 1.65a.5.5 0 01-.72.71l-2.14-2.14a.6.6 0 01-.15-.22h-1.3l1.65 1.65a.5.5 0 01-.72.71l-2.14-2.14c-.08-.08-.13-.15-.13-.22h-3.2a7.9 7.9 0 01-2 4.83l2.27 2.24a.42.42 0 01.25-.07h3.03c.27 0 .5.25.5.52a.5.5 0 01-.5.49h-2.34l.93.94c.08-.03.15-.05.25-.05h3.03a.5.5 0 01.52.49.52.52 0 01-.52.52h-2.34l1.2 1.18a.5.5 0 01-.7.72l-1.22-1.19v2.35a.5.5 0 01-.49.49c-.27 0-.52-.22-.52-.5v-3.05a.48.48 0 01.08-.25l-.94-.9V29a.5.5 0 01-.5.53.5.5 0 01-.51-.52v-3.03c0-.1.02-.18.07-.25l-2.26-2.24a8.2 8.2 0 01-4.81 2v3.17a.52.52 0 01.2.13l2.17 2.14a.5.5 0 01-.72.72L17.95 30v1.34c.07.02.15.04.2.12l2.17 2.14a.5.5 0 11-.72.72l-1.65-1.65v1.7a.54.54 0 01-.52.52.54.54 0 01-.52-.52v-1.7l-1.65 1.65a.5.5 0 01-.71-.72l2.17-2.14c.04-.08.12-.1.2-.12V30l-1.66 1.66a.5.5 0 01-.71-.72l2.17-2.14a.52.52 0 01.2-.13V25.5a8.2 8.2 0 01-4.81-2l-2.27 2.25c.05.07.07.15.07.25v3.03a.5.5 0 01-.52.52.5.5 0 01-.49-.52V26.7l-.94.91c.05.08.08.17.08.25v3.06c0 .27-.25.49-.52.49a.5.5 0 01-.5-.5v-2.34l-1.2 1.19a.5.5 0 01-.72-.72l1.21-1.18H3.97a.52.52 0 01-.52-.52c0-.27.22-.5.52-.5H7c.1 0 .17.03.25.06l.93-.94H5.84c-.27 0-.51-.22-.51-.5 0-.26.24-.51.51-.51h3.04c.1 0 .17.02.24.07l2.27-2.24a7.9 7.9 0 01-2-4.83H6.2a.5.5 0 01-.13.22L3.92 20.3a.5.5 0 01-.71-.71l1.65-1.65H3.55a.58.58 0 01-.15.22l-2.14 2.15a.5.5 0 01-.72-.72l1.65-1.65H.5a.5.5 0 01-.49-.52c0-.27.22-.5.5-.5h1.7L.53 15.3a.5.5 0 01.72-.72l2.14 2.15a.44.44 0 01.15.22h1.3l-1.64-1.65a.5.5 0 01.71-.72l2.14 2.15c.08.04.1.14.13.22h3.2a7.9 7.9 0 012-4.83L9.12 9.86c-.07.03-.15.05-.24.05H5.84c-.27 0-.51-.22-.51-.5s.24-.51.51-.51H8.2l-.94-.94a.42.42 0 01-.25.08H3.97a.5.5 0 01-.52-.5c0-.3.22-.51.52-.51H6.3l-1.2-1.21a.5.5 0 01.7-.72l1.22 1.21V3.97c0-.27.22-.5.49-.5s.52.23.52.5V7a.42.42 0 01-.08.25l.94.94V5.84c0-.27.22-.49.5-.49a.5.5 0 01.51.5V8.9a.47.47 0 01-.07.25l2.26 2.24a8.04 8.04 0 014.81-2V6.21a.54.54 0 01-.2-.12l-2.16-2.17a.5.5 0 11.71-.71l1.65 1.65V3.55a.54.54 0 01-.2-.12l-2.16-2.15a.54.54 0 010-.74.5.5 0 01.71 0l1.65 1.65V.52a.52.52 0 01.52-.52.52.52 0 01.52.52zm0 12.04a5.04 5.04 0 012.59 1.06l1.55-1.53a6.95 6.95 0 00-4.14-1.74zm3.3 1.76c.6.74 1 1.63 1.09 2.62h2.18a7.02 7.02 0 00-1.71-4.15zm1.09 3.63a4.78 4.78 0 01-1.09 2.59l1.56 1.55a7.08 7.08 0 001.7-4.14zm-1.8 3.3a4.95 4.95 0 01-2.6 1.09v2.2a7.12 7.12 0 004.15-1.74zm-3.63 1.09a4.87 4.87 0 01-2.59-1.09l-1.55 1.55a7.12 7.12 0 004.14 1.73zm-3.3-1.8a4.8 4.8 0 01-1.08-2.6h-2.18c.1 1.59.75 3.02 1.71 4.15zm-1.08-3.6c.1-.99.5-1.88 1.09-2.6l-1.56-1.55a7.02 7.02 0 00-1.7 4.15zm1.8-3.32a5.03 5.03 0 012.58-1.06v-2.2c-1.58.1-3 .74-4.14 1.72zm5.52.68a3.96 3.96 0 00-1.9-.79v2.71zm-2.94-.79a3.95 3.95 0 00-1.9.79l1.9 1.92zm-2.61 1.5a4.1 4.1 0 00-.81 1.94h2.7zm-.81 2.94a4.08 4.08 0 00.8 1.92l1.9-1.92zM15 20.59c.55.42 1.19.7 1.9.8v-2.73zm2.94.8a3.96 3.96 0 001.9-.8l-1.9-1.93zm2.61-1.52a3.82 3.82 0 00.8-1.92h-2.7zm.8-2.92a3.85 3.85 0 00-.8-1.94l-1.9 1.94z"/>
  </g>
</svg>
